<!-- time lapse by Dávid Gladiš from the Noun Project (rectangle/strokes added by Karl Svartholm) -->
<svg enable-background="new 0 0 100 100" version="1.1" viewBox="0 0 100 125" x="0px" xml:space="preserve" xmlns="http://www.w3.org/2000/svg" xmlns:xlink="http://www.w3.org/1999/xlink" y="0px">
  <g>
    <!-- <rect x="-5" y="0" width="110" height="100" rx="16.6" fill="#EEEEEE" /> -->
    <path stroke="#222222" d="M49.143,82.197c-0.604,0.195-1.214,0.38-1.833,0.542C31.454,86.892,14.842,77.641,8.74,62.775   c-5.346-13.023-1.209-27.73,8.82-36.874l-2.297-3.675C3.572,32.458-0.977,48.883,4.611,63.914   c6.426,17.281,24.957,26.625,42.711,23.209c2.408-0.463,4.709-1.179,6.895-2.104C52.057,84.924,50.184,83.817,49.143,82.197z" fill="#888888"/>
    <path stroke="#222222" d="M39.601,13.154c-2.762-0.057-2.757,4.225,0,4.282C54.722,17.746,67.577,27.853,71.47,42.02h4.501   C72.158,25.458,56.775,13.507,39.601,13.154z" fill="#888888"/>
    <path stroke="#222222" d="M20.964,23.174c0.787,1.311,1.575,2.62,2.362,3.93c0.478,0.794,1.212,1.07,1.923,1.007   c0.814,0.023,1.605-0.382,1.925-1.339c0.079-0.176,0.138-0.361,0.159-0.558c0.747-3,1.494-5.999,2.242-8.998   c0.277-1.109-0.343-2.346-1.495-2.633c-3.125-0.779-6.252-1.559-9.377-2.338c-1.789-0.446-3.409,1.494-2.417,3.145   c0.823,1.37,1.647,2.74,2.47,4.111" fill="#888888" />
    <path stroke="#222222" d="M18.859,61.376c7.36-3.651,14.72-7.302,22.081-10.952c0.659-0.326,1.065-1.136,1.06-1.849   c-0.034-5.164-0.068-10.329-0.102-15.494c-0.018-2.76-4.299-2.762-4.281,0c0.031,4.725,0.062,9.451,0.093,14.176   c-7.004,3.475-14.008,6.948-21.012,10.422C14.225,58.907,16.395,62.598,18.859,61.376z" fill="#888888" />
    <path stroke="#222222" d="M73.874,56.095c-5.124,0-9.293,4.168-9.293,9.289c0,5.125,4.169,9.295,9.293,9.295   c5.123,0,9.291-4.17,9.291-9.295C83.165,60.263,78.997,56.095,73.874,56.095z" fill="#888888" />
    <path stroke="#222222" d="M94.518,47.643l-0.566-0.151l-0.064-0.582c-0.102-0.894-0.851-1.569-1.744-1.569h-1.585   c-0.841,0-1.569,0.598-1.732,1.421l-0.137,0.689h-2.924l-0.255-0.375c-0.021-0.032-2.337-3.345-5.817-3.345H68.058   c-3.481,0-5.799,3.313-5.821,3.347l-0.256,0.371l-7.464,0.001c-2.502,0-4.536,1.816-4.536,4.049v27.771   c0,2.232,2.034,4.048,4.536,4.048h38.718c2.499,0,4.531-1.815,4.531-4.048V51.501C97.766,49.71,96.461,48.159,94.518,47.643z    M53.995,53.764c-0.531,0-0.961-0.431-0.961-0.963v-1.44c0-0.532,0.43-0.963,0.961-0.963h5.451c0.531,0,0.962,0.431,0.962,0.963   v1.44c0,0.532-0.431,0.963-0.962,0.963H53.995z M73.874,79.548c-7.81,0-14.163-6.354-14.163-14.164   c0-7.807,6.354-14.158,14.163-14.158c7.808,0,14.159,6.352,14.159,14.158C88.033,73.194,81.682,79.548,73.874,79.548z" fill="#888888" />
    <path stroke="#222222" d="M73.874,52.938c-6.865,0-12.451,5.584-12.451,12.446c0,6.865,5.586,12.451,12.451,12.451   c6.862,0,12.447-5.586,12.447-12.451C86.321,58.521,80.736,52.938,73.874,52.938z M73.874,75.321c-5.478,0-9.935-4.458-9.935-9.938   c0-5.475,4.457-9.931,9.935-9.931c5.477,0,9.933,4.456,9.933,9.931C83.807,70.863,79.351,75.321,73.874,75.321z" fill="#888888" />
  </g>
</svg>